<?xml version="1.0" encoding="UTF-8"?>
<svg version="1.1" xmlns="http://www.w3.org/2000/svg" width="225" height="225">
<path d="M0 0 C74.25 0 148.5 0 225 0 C225 74.25 225 148.5 225 225 C150.75 225 76.5 225 0 225 C0 150.75 0 76.5 0 0 Z " fill="#D10001" transform="translate(0,0)"/>
<path d="M0 0 C0.75152344 -0.02900391 1.50304687 -0.05800781 2.27734375 -0.08789062 C7.54885858 -0.14768966 10.6328077 0.7187337 14.75 4.3125 C15.87551241 8.02007029 16.2301249 10.14219557 14.75 13.75 C11.75607014 16.0890077 9.43005464 15.71396051 5.75 15.3125 C3.75 13.3125 3.75 13.3125 3.5625 10.3125 C3.75 7.3125 3.75 7.3125 4.75 5.3125 C3.76 5.6425 2.77 5.9725 1.75 6.3125 C1.42 11.2625 1.09 16.2125 0.75 21.3125 C10.51167175 21.24792405 10.51167175 21.24792405 19.8125 18.75 C26.49910957 15.77979925 35.48461917 16.26973974 42.375 18.4375 C46.12785792 20.52242107 48.14773008 22.37878914 49.75 26.3125 C50.36434617 30.2681296 50.44583969 34.18948423 50.5 38.1875 C50.52964844 39.25742188 50.55929688 40.32734375 50.58984375 41.4296875 C50.660228 44.05736608 50.71307994 46.68417364 50.75 49.3125 C52.73 49.6425 54.71 49.9725 56.75 50.3125 C56.75 37.1125 56.75 23.9125 56.75 10.3125 C54.11 10.3125 51.47 10.3125 48.75 10.3125 C48.75 7.6725 48.75 5.0325 48.75 2.3125 C71.66871645 -0.19596823 71.66871645 -0.19596823 77.83300781 3.59277344 C81.15050398 7.12349242 82.89173993 11.4431401 84.68261719 15.88964844 C86.62284348 20.29376687 89.30753614 24.25439551 91.875 28.3125 C93.48375 30.9525 95.0925 33.5925 96.75 36.3125 C96.75 28.0625 96.75 19.8125 96.75 11.3125 C94.11 10.9825 91.47 10.6525 88.75 10.3125 C88.75 7.6725 88.75 5.0325 88.75 2.3125 C97.66 2.3125 106.57 2.3125 115.75 2.3125 C115.75 4.9525 115.75 7.5925 115.75 10.3125 C112.78 10.3125 109.81 10.3125 106.75 10.3125 C106.75 26.4825 106.75 42.6525 106.75 59.3125 C101.47 59.3125 96.19 59.3125 90.75 59.3125 C89.99976563 57.99378906 89.24953125 56.67507812 88.4765625 55.31640625 C81.98857812 43.92835356 75.42101381 32.59436159 68.75 21.3125 C68.42 30.8825 68.09 40.4525 67.75 50.3125 C70.39 50.3125 73.03 50.3125 75.75 50.3125 C75.75 53.2825 75.75 56.2525 75.75 59.3125 C70.98113513 59.36200115 66.21242041 59.39826738 61.44335938 59.42236328 C59.82158808 59.43241023 58.19983484 59.44605015 56.578125 59.46337891 C54.24474626 59.48768493 51.9116074 59.49899613 49.578125 59.5078125 C48.49352997 59.52329636 48.49352997 59.52329636 47.38702393 59.53909302 C43.70111452 59.53991136 40.81851286 59.48293476 37.75 57.3125 C37.42 56.6525 37.09 55.9925 36.75 55.3125 C36.1725 55.60125 35.595 55.89 35 56.1875 C34.2575 56.55875 33.515 56.93 32.75 57.3125 C32.15445313 57.65796875 31.55890625 58.0034375 30.9453125 58.359375 C26.7420912 60.18426111 22.2321878 59.84439493 17.75 59.3125 C14.47540953 57.70392924 12.60608276 56.40205988 10.375 53.5625 C9.43561493 50.18071374 8.95582877 46.75839549 9.75 43.3125 C12.42753573 39.96866505 14.98502568 38.55259127 19 37.1875 C20.44246094 36.69443359 20.44246094 36.69443359 21.9140625 36.19140625 C25.49799925 35.08068205 29.10300529 34.19048021 32.75 33.3125 C34.08187793 32.20083136 34.08187793 32.20083136 33.9375 29.375 C34.08278733 26.20357141 34.08278733 26.20357141 31.75 24.3125 C29.08757179 23.84959779 29.08757179 23.84959779 26.125 23.6875 C24.62066406 23.57535156 24.62066406 23.57535156 23.0859375 23.4609375 C22.31507812 23.41195312 21.54421875 23.36296875 20.75 23.3125 C20.75 23.9725 20.75 24.6325 20.75 25.3125 C22.73 25.8075 22.73 25.8075 24.75 26.3125 C25.4375 28.625 25.4375 28.625 25.75 31.3125 C24.75 33.125 24.75 33.125 22.75 34.3125 C19.0625 34.5 19.0625 34.5 15.75 34.3125 C15.255 35.3025 15.255 35.3025 14.75 36.3125 C10.13 36.3125 5.51 36.3125 0.75 36.3125 C0.75 53.1425 0.75 69.9725 0.75 87.3125 C-4.2 87.3125 -9.15 87.3125 -14.25 87.3125 C-14.25 70.4825 -14.25 53.6525 -14.25 36.3125 C-18.87 36.3125 -23.49 36.3125 -28.25 36.3125 C-28.27578125 34.99894531 -28.3015625 33.68539062 -28.328125 32.33203125 C-28.38441829 30.5963215 -28.44176535 28.8606457 -28.5 27.125 C-28.51417969 26.26068359 -28.52835938 25.39636719 -28.54296875 24.50585938 C-28.74598415 19.2071574 -29.20311443 16.11568626 -33.25 12.3125 C-36.95570744 9.84202837 -39.95302462 9.53123175 -44.25 10.3125 C-49.17476359 13.37886224 -51.56961237 16.84730766 -53.25 22.3125 C-53.53070478 25.06175565 -53.68164396 27.51668318 -53.625 30.25 C-53.61557373 30.9522168 -53.60614746 31.65443359 -53.59643555 32.37792969 C-53.40205854 39.04715192 -52.52549516 43.63544687 -48.125 48.8125 C-44.08776713 50.91888237 -40.71287662 50.96164569 -36.25 50.3125 C-33.25618942 49.20609174 -31.82715141 48.36399042 -30.28515625 45.5546875 C-29.53128691 43.83850569 -28.88255758 42.07700273 -28.25 40.3125 C-25.28 40.3125 -22.31 40.3125 -19.25 40.3125 C-19.96993105 47.87177601 -23.79079528 52.18258494 -29.2734375 57.015625 C-35.90086844 61.36405795 -43.64026819 60.99134171 -51.25 60.3125 C-60.47341936 58.03130671 -66.35282366 53.31273966 -71.26953125 45.27734375 C-74.93451716 37.93277039 -74.25839209 27.1236237 -72.6015625 19.21875 C-69.93233968 11.82705604 -65.14099891 6.59951354 -58.25 2.875 C-51.17692759 0.07726074 -42.60097837 0.00309625 -35.35546875 2.18359375 C-33.22964499 3.12115415 -31.24540062 4.12668913 -29.25 5.3125 C-28.59 5.6425 -27.93 5.9725 -27.25 6.3125 C-26.92 4.9925 -26.59 3.6725 -26.25 2.3125 C-23.94 2.3125 -21.63 2.3125 -19.25 2.3125 C-19.25 8.5825 -19.25 14.8525 -19.25 21.3125 C-17.6 21.3125 -15.95 21.3125 -14.25 21.3125 C-14.29640625 20.20390625 -14.3428125 19.0953125 -14.390625 17.953125 C-14.42815102 16.48961032 -14.46455029 15.02606644 -14.5 13.5625 C-14.53351563 12.83289063 -14.56703125 12.10328125 -14.6015625 11.3515625 C-14.66708687 7.74772196 -14.59376276 5.75853928 -12.359375 2.859375 C-8.34844625 -0.08197275 -4.82730408 0.06084837 0 0 Z " fill="#FCF8F8" transform="translate(91.25,71.6875)"/>
<path d="M0 0 C0.66 0.33 1.32 0.66 2 1 C2.33 -0.32 2.66 -1.64 3 -3 C5.31 -3 7.62 -3 10 -3 C10 3.27 10 9.54 10 16 C11.65 16 13.3 16 15 16 C15 12.04 15 8.08 15 4 C15.66 4 16.32 4 17 4 C17 8.95 17 13.9 17 19 C13.04 19 9.08 19 5 19 C5 22.3 5 25.6 5 29 C8.96 29 12.92 29 17 29 C17 30.65 17 32.3 17 34 C16.67 33.01 16.34 32.02 16 31 C11.05 31 6.1 31 1 31 C0.97421875 29.68644531 0.9484375 28.37289062 0.921875 27.01953125 C0.86558171 25.2838215 0.80823465 23.5481457 0.75 21.8125 C0.73582031 20.94818359 0.72164062 20.08386719 0.70703125 19.19335938 C0.50401585 13.8946574 0.04688557 10.80318626 -4 7 C-7.70570744 4.52952837 -10.70302462 4.21873175 -15 5 C-19.92476359 8.06636224 -22.31961237 11.53480766 -24 17 C-24.28070478 19.74925565 -24.43164396 22.20418318 -24.375 24.9375 C-24.36557373 25.6397168 -24.35614746 26.34193359 -24.34643555 27.06542969 C-24.15205854 33.73465192 -23.27549516 38.32294687 -18.875 43.5 C-14.83776713 45.60638237 -11.46287662 45.64914569 -7 45 C-4.00618942 43.89359174 -2.57715141 43.05149042 -1.03515625 40.2421875 C-0.28128691 38.52600569 0.36744242 36.76450273 1 35 C3.97 35 6.94 35 10 35 C9.28006895 42.55927601 5.45920472 46.87008494 -0.0234375 51.703125 C-6.65086844 56.05155795 -14.39026819 55.67884171 -22 55 C-31.22341936 52.71880671 -37.10282366 48.00023966 -42.01953125 39.96484375 C-45.68451716 32.62027039 -45.00839209 21.8111237 -43.3515625 13.90625 C-40.68233968 6.51455604 -35.89099891 1.28701354 -29 -2.4375 C-19.50138377 -6.19465813 -8.68220435 -5.1595916 0 0 Z " fill="#FCF7F6" transform="translate(62,77)"/>
<path d="M0 0 C2.97 0 5.94 0 9 0 C9 5.28 9 10.56 9 16 C13.62 16 18.24 16 23 16 C23 18.64 23 21.28 23 24 C18.38 24 13.76 24 9 24 C9 40.83 9 57.66 9 75 C6.03 75 3.06 75 0 75 C0 58.17 0 41.34 0 24 C-4.29 24 -8.58 24 -13 24 C-13 21.03 -13 18.06 -13 15 C-8.71 15 -4.42 15 0 15 C0 10.05 0 5.1 0 0 Z " fill="#D00102" transform="translate(80,81)"/>
<path d="M0 0 C0.73798828 -0.01998047 1.47597656 -0.03996094 2.23632812 -0.06054688 C7.42418517 -0.05593545 10.51129979 0.93021093 14.5625 4.4375 C15.68801241 8.14507029 16.0426249 10.26719557 14.5625 13.875 C11.56857014 16.2140077 9.24255464 15.83896051 5.5625 15.4375 C3.5625 13.4375 3.5625 13.4375 3.375 10.4375 C3.5625 7.4375 3.5625 7.4375 4.5625 5.4375 C3.5725 5.7675 2.5825 6.0975 1.5625 6.4375 C1.2325 11.3875 0.9025 16.3375 0.5625 21.4375 C5.1825 21.4375 9.8025 21.4375 14.5625 21.4375 C14.5625 21.7675 14.5625 22.0975 14.5625 22.4375 C9.6125 22.4375 4.6625 22.4375 -0.4375 22.4375 C-0.7675 23.0975 -1.0975 23.7575 -1.4375 24.4375 C3.1825 24.4375 7.8025 24.4375 12.5625 24.4375 C12.5625 27.7375 12.5625 31.0375 12.5625 34.4375 C7.9425 34.4375 3.3225 34.4375 -1.4375 34.4375 C-1.4375 50.9375 -1.4375 67.4375 -1.4375 84.4375 C-1.7675 84.4375 -2.0975 84.4375 -2.4375 84.4375 C-2.4375 67.6075 -2.4375 50.7775 -2.4375 33.4375 C2.1825 33.4375 6.8025 33.4375 11.5625 33.4375 C11.5625 30.7975 11.5625 28.1575 11.5625 25.4375 C6.9425 25.4375 2.3225 25.4375 -2.4375 25.4375 C-2.4375 20.1575 -2.4375 14.8775 -2.4375 9.4375 C-5.4075 9.4375 -8.3775 9.4375 -11.4375 9.4375 C-11.4375 14.3875 -11.4375 19.3375 -11.4375 24.4375 C-11.7675 24.4375 -12.0975 24.4375 -12.4375 24.4375 C-12.4375 19.4875 -12.4375 14.5375 -12.4375 9.4375 C-13.0975 9.4375 -13.7575 9.4375 -14.4375 9.4375 C-14.25 6.625 -14.25 6.625 -13.4375 3.4375 C-9.20769575 -0.05739618 -5.23302779 -0.05001156 0 0 Z " fill="#F7E6E5" transform="translate(91.4375,71.5625)"/>
<path d="M0 0 C4.29 0 8.58 0 13 0 C13 16.83 13 33.66 13 51 C15.97 51 18.94 51 22 51 C22.66 51.66 23.32 52.32 24 53 C24 36.5 24 20 24 3 C24.33 3 24.66 3 25 3 C25 19.83 25 36.66 25 54 C20.05 54 15.1 54 10 54 C9.95067459 46.77344772 9.91431592 39.54699276 9.89013672 32.3203125 C9.88006017 29.86033421 9.86639869 27.40036794 9.84912109 24.94042969 C9.82494539 21.41077715 9.8135336 17.88128253 9.8046875 14.3515625 C9.79436493 13.24632233 9.78404236 12.14108215 9.77340698 11.00234985 C9.77325592 9.98144257 9.77310486 8.96053528 9.77294922 7.90869141 C9.768508 7.00712311 9.76406677 6.10555481 9.75949097 5.17666626 C10 3 10 3 12 1 C8.04 1 4.08 1 0 1 C0 0.67 0 0.34 0 0 Z " fill="#F4DBDA" transform="translate(67,105)"/>
<path d="M0 0 C1.77007714 -0.08114106 3.54122098 -0.13925505 5.3125 -0.1875 C6.29863281 -0.22230469 7.28476563 -0.25710937 8.30078125 -0.29296875 C11 0 11 0 12.828125 1.32421875 C14.66769486 3.95480366 14.45354771 5.88995859 14 9 C10.71275733 12.370464 6.71416858 12.9153423 2.25 13.6875 C1.55261719 13.81705078 0.85523437 13.94660156 0.13671875 14.08007812 C-1.57375889 14.39639933 -3.28666725 14.69952747 -5 15 C-5.33 13.35 -5.66 11.7 -6 10 C-4.72125 10.04125 -3.4425 10.0825 -2.125 10.125 C0.01871492 10.24212873 0.01871492 10.24212873 2 10 C2.66 9.34 3.32 8.68 4 8 C3.67958603 5.39719432 3.67958603 5.39719432 3 3 C2.01 2.67 1.02 2.34 0 2 C0 1.34 0 0.68 0 0 Z " fill="#CF0707" transform="translate(112,95)"/>
<path d="M0 0 C0.48337596 6.28388747 0.48337596 6.28388747 -1.6875 9.5 C-4 11 -4 11 -6.75 10.75 C-7.4925 10.5025 -8.235 10.255 -9 10 C-9.75 7.75 -9.75 7.75 -10 5 C-6.8461939 1.08493036 -5.05723943 0 0 0 Z " fill="#CF0C0C" transform="translate(126,111)"/>
<path d="M0 0 C0 0.99 0 1.98 0 3 C-4.95 3 -9.9 3 -15 3 C-15 2.34 -15 1.68 -15 1 C-12.8750734 0.83240016 -10.75005624 0.66594799 -8.625 0.5 C-7.44164063 0.4071875 -6.25828125 0.314375 -5.0390625 0.21875 C-3.36213157 0.09804546 -1.68126944 0 0 0 Z " fill="#FAF0EE" transform="translate(106,105)"/>
<path d="M0 0 C6.15234375 0.5859375 6.15234375 0.5859375 8 1 C8.33 1.66 8.66 2.32 9 3 C6.36 3.66 3.72 4.32 1 5 C0.67 3.35 0.34 1.7 0 0 Z " fill="#CB1515" transform="translate(106,105)"/>
</svg>
